<?xml version="1.0" encoding="UTF-8" standalone="no"?>
<!-- Created with Inkscape (http://www.inkscape.org/) -->

<svg
   width="166.13646mm"
   height="32.874512mm"
   viewBox="0 0 166.13646 32.874512"
   version="1.1"
   id="svg1"
   inkscape:version="1.4 (e7c3feb1, 2024-10-09)"
   sodipodi:docname="描画.svg"
   xmlns:inkscape="http://www.inkscape.org/namespaces/inkscape"
   xmlns:sodipodi="http://sodipodi.sourceforge.net/DTD/sodipodi-0.dtd"
   xmlns:xlink="http://www.w3.org/1999/xlink"
   xmlns="http://www.w3.org/2000/svg"
   xmlns:svg="http://www.w3.org/2000/svg">
  <sodipodi:namedview
     id="namedview1"
     pagecolor="#ffffff"
     bordercolor="#000000"
     borderopacity="0.25"
     inkscape:showpageshadow="2"
     inkscape:pageopacity="0.0"
     inkscape:pagecheckerboard="0"
     inkscape:deskcolor="#d1d1d1"
     inkscape:document-units="mm"
     inkscape:zoom="0.3588396"
     inkscape:cx="303.75689"
     inkscape:cy="390.14646"
     inkscape:window-width="1104"
     inkscape:window-height="845"
     inkscape:window-x="422"
     inkscape:window-y="46"
     inkscape:window-maximized="0"
     inkscape:current-layer="layer1" />
  <defs
     id="defs1">
    <linearGradient
       id="linearGradient1"
       inkscape:collect="always">
      <stop
         style="stop-color:#24323f;stop-opacity:1;"
         offset="0"
         id="stop1" />
      <stop
         style="stop-color:#24323f;stop-opacity:0;"
         offset="1"
         id="stop2" />
    </linearGradient>
    <radialGradient
       inkscape:collect="always"
       xlink:href="#linearGradient1"
       id="radialGradient2"
       cx="105.54351"
       cy="54.897675"
       fx="105.54351"
       fy="54.897675"
       r="83.06823"
       gradientTransform="matrix(1,0,0,0.19787657,0,44.03471)"
       gradientUnits="userSpaceOnUse" />
  </defs>
  <g
     inkscape:label="Layer 1"
     inkscape:groupmode="layer"
     id="layer1"
     transform="translate(-22.475287,-38.460418)">
    <path
       d="m 29.133974,70.783714 h -6.658687 l 6.76893,-32.323296 h 13.140986 q 3.505733,0 5.534207,0.837848 2.050523,0.815799 3.241149,2.73403 1.190626,1.896183 1.190626,4.542019 0,2.447398 -0.948091,4.762505 -0.948091,2.315106 -2.337155,3.70417 -1.367015,1.389064 -2.954517,2.116669 -1.587502,0.705556 -4.277435,1.080383 -1.565453,0.220486 -5.864936,0.220486 H 31.713664 Z M 32.816096,53.10071 h 2.050523 q 5.269623,0 7.033514,-0.661459 1.763891,-0.661459 2.778128,-2.116669 1.014237,-1.455209 1.014237,-3.197052 0,-1.168577 -0.529167,-1.918231 -0.507119,-0.749653 -1.45521,-1.080383 -0.926043,-0.352778 -4.167192,-0.352778 H 34.778424 Z M 57.11369,47.368065 h 5.909034 l -0.948092,4.542019 q 3.307295,-5.093234 7.165806,-5.093234 1.367016,0 2.932468,0.683507 l -2.425349,5.181429 q -0.859897,-0.308681 -1.830037,-0.308681 -1.631599,0 -3.329343,1.234724 -1.675697,1.234723 -2.623788,3.307295 -0.948091,2.050523 -1.874134,6.526395 l -1.543404,7.342195 h -6.327958 z m 13.956784,13.692202 q 0,-6.504347 3.660073,-10.362858 3.682121,-3.880559 9.657301,-3.880559 5.181429,0 8.091849,2.866322 2.910419,2.844274 2.910419,7.672924 0,5.688548 -3.638024,9.833691 -3.638025,4.145143 -9.745496,4.145143 -3.307295,0 -5.864937,-1.322918 -2.557641,-1.322918 -3.814413,-3.748268 -1.256772,-2.425349 -1.256772,-5.203477 z m 18.035782,-4.51997 q 0,-2.248961 -1.322918,-3.593927 -1.30087,-1.367016 -3.373441,-1.367016 -2.050523,0 -3.638025,1.278821 -1.587501,1.256772 -2.469447,3.682122 -0.881945,2.403301 -0.881945,4.431775 0,2.513545 1.367015,3.990803 1.367016,1.477258 3.439587,1.477258 2.601739,0 4.36563,-2.226912 2.513544,-3.152954 2.513544,-7.672924 z m 13.604004,-9.172232 h 5.99723 l -0.61736,3.042712 q 2.24896,-1.94028 4.18924,-2.756079 1.96233,-0.837848 4.12309,-0.837848 2.88837,0 4.54202,1.653647 1.6757,1.653648 1.6757,4.387678 0,1.234724 -0.72761,4.674311 l -2.75608,13.251228 h -6.32795 l 2.77812,-13.295326 q 0.61737,-2.976565 0.61737,-3.54983 0,-1.212675 -0.72761,-1.896182 -0.70556,-0.705556 -1.98438,-0.705556 -1.38906,0 -3.0868,1.168577 -1.69775,1.168578 -2.66789,3.086809 -0.70556,1.367015 -1.5875,5.578304 l -2.00643,9.613204 h -6.327955 z m 31.52955,6.636639 -6.17362,-0.529167 q 1.05833,-3.130906 3.68212,-4.894797 2.64584,-1.76389 6.98942,-1.76389 4.51997,0 6.68073,1.830036 2.16077,1.807988 2.16077,4.431776 0,1.058334 -0.19844,2.24896 -0.17639,1.190626 -1.30087,6.261812 -0.92604,4.18924 -0.92604,5.864937 0,1.499307 0.52917,3.329343 h -6.15157 q -0.37483,-1.27882 -0.46302,-2.645836 -1.38907,1.543405 -3.19705,2.381253 -1.80799,0.815799 -3.63803,0.815799 -2.91042,0 -4.8066,-1.896182 -1.89618,-1.918231 -1.89618,-4.916846 0,-3.351392 2.07257,-5.357818 2.09462,-2.006425 7.45244,-2.425349 4.51997,-0.374827 6.04132,-0.903994 0.39688,-1.322918 0.39688,-2.116669 0,-1.014237 -0.8158,-1.697745 -0.8158,-0.683507 -2.42535,-0.683507 -1.69775,0 -2.68993,0.705556 -0.97014,0.683507 -1.32292,1.962328 z m 6.01927,5.864937 q -0.57326,0.15434 -1.52135,0.286632 -4.76251,0.573264 -6.21772,1.675696 -1.03628,0.793751 -1.03628,2.138718 0,1.102431 0.79375,1.874133 0.79375,0.749654 2.09462,0.749654 1.43316,0 2.68993,-0.683508 1.27882,-0.705556 1.89618,-1.785939 0.63942,-1.102432 1.12449,-3.417538 z m 21.87225,10.914073 h -5.44601 l -4.69636,-23.415649 h 6.21771 l 1.65365,10.208518 q 0.68351,4.145143 0.8158,5.512158 0.17639,-0.374827 1.52136,-2.844274 1.36701,-2.491495 1.67569,-2.998614 l 5.82084,-9.877788 h 6.83508 z m 20.15245,-32.323296 h 6.32796 l -1.19062,5.732644 h -6.32796 z m -1.85208,8.907647 h 6.32796 l -4.8948,23.415649 h -6.32796 z"
       id="text1"
       style="font-style:italic;font-weight:bold;font-size:45.1556px;font-family:Arial;-inkscape-font-specification:'Arial, Bold Italic';fill:#24323f;stroke-width:0.264583"
       aria-label="Pronavi" />
  </g>
</svg>
